<?xml version="1.0" encoding="utf-8"?>
<!-- Generator: Adobe Illustrator 27.5.0, SVG Export Plug-In . SVG Version: 6.00 Build 0)  -->
<svg version="1.1" xmlns="http://www.w3.org/2000/svg" xmlns:xlink="http://www.w3.org/1999/xlink" x="0px" y="0px"
	 viewBox="0 0 500 500" style="enable-background:new 0 0 500 500;" xml:space="preserve">
<g id="BACKGROUND">
	<rect style="fill:#FFFFFF;" width="500" height="500"/>
</g>
<g id="OBJECTS">
	<g>
		<path d="M141.041,215.266c5.629-0.845,8.043-6.266,7.269-11.455c-1.599-10.727-13.727-16.286-22.877-10.703
			c-1.507,0.92-0.192,3.043,1.361,2.328c3.176-1.461,6.455-1.338,9.22-0.088c-4.615,1.824-5.778,7.163-5.019,11.635
			C131.841,211.973,135.681,216.071,141.041,215.266z"/>
		<path d="M199.465,219.76c5.629-0.845,8.043-6.266,7.269-11.455c-1.599-10.727-13.727-16.286-22.877-10.703
			c-1.508,0.92-0.192,3.043,1.361,2.328c3.176-1.461,6.455-1.338,9.22-0.088c-4.615,1.824-5.778,7.163-5.019,11.635
			C190.265,216.467,194.105,220.565,199.465,219.76z"/>
		<path d="M143.285,143.636c2.998-1.773,6.17,2.42,7.48,4.539c1.51,2.442,2.402,5.13,2.877,7.951
			c0.497,2.952,5.037,1.713,4.51-1.243c-1.185-6.642-7.856-19.05-16.058-13.284C140.871,142.458,141.956,144.422,143.285,143.636z"
			/>
		<path d="M157.586,142.234c1.314,2.657,2.08,5.592,2.855,8.442c0.692,2.548,4.514,1.474,3.941-1.087
			c-1.242-5.546-3.758-15.171-10.863-15.584c-1.096-0.064-1.35,1.238-0.804,1.942C154.387,138.105,156.343,139.721,157.586,142.234z
			"/>
		<path d="M173.537,152.485c0.968-3.458,1.515-7.097,3.111-10.345c1.2-2.443,3.344-4.38,4.289-6.885
			c0.199-0.528-0.312-1.103-0.833-1.093c-7.054,0.124-9.809,11.986-10.549,17.226C169.195,153.938,172.798,155.124,173.537,152.485z
			"/>
		<path d="M180.048,153.761c3.02-5.454,6.88-10.196,12.576-13.014c1.232-0.609,0.153-2.356-1.063-1.819
			c-6.191,2.731-11.522,7.355-13.977,13.794C177.035,154.162,179.319,155.078,180.048,153.761z"/>
		<path d="M186.399,154.432c-0.617,2.098,2.546,3.507,3.581,1.51c3.028-5.847,8.812-9.068,14.962-10.818
			c0.851-0.242,0.709-1.603-0.213-1.573C197.012,143.81,188.814,146.211,186.399,154.432z"/>
		<path d="M280.13,164.399c0.532,0.727,1.738,0.074,1.237-0.723c-6.345-10.096-18.146-11.954-28.533-6.904
			c-6.182,3.006-10.462,8.165-15.156,13.001c-5.116,5.271-11.927,10.463-19.629,7.542c-2.619-0.993-3.731,3.189-1.154,4.185
			c11.087,4.284,19.935-4.925,26.71-12.365c4.479-4.919,9.391-9.389,16.022-11.078C266.853,156.216,275.582,158.181,280.13,164.399z
			"/>
		<path d="M407.282,320.807c-2.117-5.652-5.189-10.783-6.435-16.756c-1.284-6.155-1.542-12.539-2.38-18.764
			c-1.697-12.614-4.259-25.172-8.694-37.13c-4.332-11.683-10.542-22.91-18.694-32.38c13.996-4.468,19.335-20.499,11.964-32.667
			c6.607-3.546,11.147-10.513,10.714-18.27c-0.427-7.649-5.65-14.043-12.501-16.882c6.831-10.357,12.119-23.782,4.296-35.074
			c-3.042-4.391-8.424-8.215-13.961-6.34c-5.373,1.819-7.687,7.899-9.457,12.732c-5.565,15.195-10.072,31.041-18.953,44.743
			c-6.942,10.711-17.415,21.031-29.844,25.289c-0.953-0.01-1.907-0.009-2.86,0.008c-11.397,0.209-22.75,1.904-33.136,6.429
			c0.004-0.006,0.009-0.012,0.013-0.018c7.811-10.887,15.957-29.69,9.397-42.767c-2.88-5.74-8.455-9.563-14.975-9.23
			c-8.518,0.435-16.561,5.871-24.763,7.99c-5.237,1.353-10.65,2.032-16.057,1.55c-5.2-0.463-10.142-2.32-15.213-3.44
			c-7.295-1.611-15.404-1.548-20.739,4.386c-0.864,0.961,0.426,2.204,1.4,1.4c5.925-4.89,13.757-3.238,20.412-1.009
			c5.979,2.003,11.759,3.935,18.142,3.96c6.71,0.026,13.387-1.479,19.709-3.637c6.239-2.13,14.02-7.609,20.759-5.737
			c6.991,1.942,9.019,10.123,8.541,16.448c-0.503,6.653-2.948,13.516-5.915,19.45c-5.477,10.953-14.424,20.556-26.343,24.317
			c-6.695,2.112-13.985,2.479-20.76,0.499c-7.304-2.135-15.453-7.631-15.476-16.026c-0.008-3.226-5.028-3.232-5.014,0
			c0.065,15.087,17.527,22.539,30.493,22.275c12.673-0.258,23.918-6.246,32.256-15.344c19.476-7.483,43.015-9.909,63.009-3.49
			c18.222,5.85,32.598,20.158,41.796,36.584c10.374,18.524,14.529,39.816,16.756,60.711c0.49,4.6,0.909,9.273,2.194,13.735
			c1.381,4.795,3.96,9.079,5.716,13.724c4.079,10.789,0.74,22.423-6.402,31.101c-3.55,4.313-8.287,8.694-13.575,11.919
			c-0.46-1.23-1.072-2.355-1.049-3.838c0.031-2.108,0.758-4.183,1.245-6.22c0.303-1.27-1.371-1.958-2.079-0.876
			c-2.005,3.061-4.865,9.596-2.319,13.185c-3.313,1.519-6.764,2.513-10.226,2.698c-1.455,0.078-2.962-0.014-4.445-0.276
			c0.016-0.36-0.078-0.732-0.335-1.084c-1.64-2.244-1.961-3.995-1.244-6.743c0.546-2.092,1.312-4.543,3.034-5.961
			c1.133-0.934-0.082-2.984-1.447-2.486c-4.62,1.688-7.54,8.897-6.075,13.986c-1.519-0.967-2.845-2.213-3.832-3.771
			c-2.791-4.406-2.052-10.138,1.92-13.462c0.23,0.06,0.459,0.122,0.689,0.18c3.287,0.834,4.69-4.251,1.4-5.079
			c-15.976-4.02-32.514-12.049-39.553-27.968c-0.695-1.573-3.29-0.454-2.772,1.169c1.798,5.637,4.664,10.38,8.277,14.383
			c-10.417,3.082-21.575,4.502-32.082,5.459c-7.298,0.665-14.618,0.917-21.944,0.788c-5.447-0.095-11.077-0.873-16.613-1.005
			c1.122-2.42,2.21-4.855,3.243-7.316c4.255-10.144,7.518-20.623,9.119-31.523c0.436-2.97-4.11-4.253-4.55-1.254
			c-2.619,17.833-9.787,34.341-18.086,50.204c-1.773,3.389-3.952,6.725-5.388,10.269c-1.304,3.218-0.726,6.721-1.74,10.024
			c-2.667,8.686-10.784,14.118-19.028,16.809c-6.249,2.04-12.966,3.218-19.614,3.672c-0.87-5.104,1.473-9.879,4.687-13.733
			c0.572-0.687,0.055-2.094-0.984-1.69c-6.395,2.485-9.031,9.193-8.453,15.623c-0.327,0.005-0.657,0.021-0.982,0.023
			c-5.594,0.035-12.458-0.517-18.117-2.916c-2.478-7.616,4.36-12.342,10.133-15.802c0.563-0.337,0.362-1.343-0.351-1.295
			c-7.599,0.512-14.719,6.724-14.718,14.212c-0.521-0.416-1.026-0.85-1.494-1.324c-4.043-4.103-3.487-10.104,0.188-14.299
			c2.863-3.267,6.521-4.027,10.012-6.211c2.29-1.433,3.179-3.231,3.699-5.799c0.952-4.709,1.633-9.474,2.604-14.183
			c4.181-20.263,10.834-39.723,16.7-59.512c0.302-1.019-1.222-1.688-1.733-0.731c-9.746,18.287-15.464,38.718-19.639,58.955
			c-0.057,0.278-0.105,0.564-0.158,0.847c-11.241,6.54-23.201,11.575-35.303,16.281c-5.666,2.203-11.582,5.143-17.734,5.502
			c-3.478,0.203-6.918-0.378-10.173-1.524c0.13-0.202,0.245-0.423,0.322-0.688c1.172-4.021,4.018-7.351,7.971-8.859
			c2.044-0.78,1.285-3.861-0.918-3.332c-5.6,1.345-10.032,5.424-11.927,10.844c-0.485-0.264-0.969-0.529-1.44-0.816
			c-3.266-1.99-6.516-4.71-8.945-7.918c0.144-0.214,0.269-0.459,0.352-0.757c0.673-2.41,1.692-4.379,3.82-5.808
			c1.993-1.338,4.168-1.337,6.402-1.913c1.087-0.281,1.238-1.788,0.307-2.349c-4.984-3.001-11.187,0.805-13.845,5.579
			c-0.014-0.036-0.031-0.072-0.044-0.109c-2.377-6.423,1.161-13.693,8.404-14.29c2.214-0.182,4.336,0.844,6.53,0.133
			c1.962-0.636,3.326-2.246,4.716-3.68c4.322-4.46,8.722-8.946,12.723-13.712c3.923,1.443,8.091,2.352,12.298,2.79
			c12.386,1.291,25.634-1.584,35.381-9.615c8.776-7.23,14.116-18.359,13.49-29.729c5.124,0.045,10.256-0.835,15.042-2.67
			c8.505-3.261,16.441-9.773,19.109-18.781c3.165-10.689-3.174-20.341-9.301-28.527c-1.601-2.139-5.253-0.069-3.638,2.126
			c5.171,7.03,11.304,15.407,8.918,24.64c-2.219,8.588-10.342,14.533-18.428,17.103c-9.076,2.885-19.179,2.163-27.753-1.981
			c-6.416-3.101-10.789-7.737-14.947-12.968c0.697-0.4,1.422-0.895,2.194-1.491c5.221-4.031,14.962-14.846,4.854-19.372
			c-4.149-1.858-9.458-2.032-13.884-1.427c-3.801,0.52-9.977,1.575-12.136,5.322c-0.005,0.008-0.008,0.016-0.012,0.024
			c-0.561,0.616-0.874,1.453-0.717,2.368c-0.374,4.872,5.245,10.51,10.222,13.307c0.943,0.742,1.816,1.3,2.652,1.702
			c-6.733,9.306-23.532,12.153-33.829,9.19c-6.487-1.866-11.198-6.943-10.566-13.971c0.659-7.341,6.134-11.136,9.383-17.087
			c0.992-1.818,1.024-3.25,0.552-5.232c-0.866-3.636-1.902-6.986-2.292-10.747c-0.655-6.315-0.572-12.803,0.22-19.101
			c1.62-12.879,7.589-26.294,18.638-33.732c1.208-0.814,0.142-2.699-1.152-1.971c-11.873,6.679-18.435,18.004-21.102,30.894
			c-0.001-0.001-0.001-0.003-0.002-0.004c-2.679-4.868-6.193-8.426-7.716-13.989c-1.57-5.736-1.264-11.825,0.402-17.501
			c1.367-4.659,3.978-8.771,5.743-13.244c7.66-6.436,16.376-11.924,22.399-19.97c2.672,2.862,4.598,6.095,5.746,9.99
			c0.728,2.469,4.489,1.441,3.86-1.064c-1.373-5.471-4.117-10.265-8.313-14.057c-1.12-1.012-2.757-0.814-3.58,0.461
			c-10.353,16.043-31.06,22.103-38.322,40.677c-5.932,15.174-1.865,40.551,17.539,43.293c0.257,0.036,0.501,0.024,0.737-0.013
			c-0.052,4.378,0.234,8.765,0.901,13.047c0.322,2.066,1.016,4.082,1.327,6.133c0.489,3.219-0.141,4.756-2.075,7.201
			c-2.095,2.648-4.023,5.405-5.396,8.502c-4.222,9.521-1.046,18.51,6.364,23.276c-6.496,9.372-6.4,22.338-0.589,32.076
			c3.383,5.669,8.273,9.715,13.899,12.465c-2.289,2.124-4.497,4.343-6.693,6.554c-1.416,1.426-2.838,2.846-4.248,4.277
			c-2.129,2.161-2.916,3.803-6.186,3.584c-4.946-0.331-9.338,0.76-12.918,4.404c-9.244,9.408-0.883,22.697,7.482,29.246
			c10.701,8.377,22.625,9.008,34.981,4.317c13.383-5.08,26.757-10.346,39.318-17.24c-0.362,2.505-0.781,4.997-1.519,7.266
			c-1.413,4.347-6.906,5.095-10.286,7.949c-5.735,4.844-8.641,13.081-4.468,19.866c4.119,6.699,12.837,9.565,20.158,10.772
			c9.14,1.507,18.55,0.71,27.61-0.975c8.19-1.523,16.435-4.187,22.836-9.725c2.853-2.469,5.323-5.543,6.976-8.942
			c1.937-3.983,1.623-7.729,2.546-11.859c1.106-4.944,5.112-10.081,7.404-14.587c0.808-1.589,1.598-3.188,2.377-4.791
			c5.443,1.26,11.302,1.416,16.737,1.66c-0.438,1.036-0.844,2.086-1.22,3.156c-0.629,1.791-1.651,3.86-1.614,5.796
			c-5.533,1.09-10.088,6.087-10.41,12.394c-0.209,4.089,1.311,8.431,5.331,10.055c5.08,2.052,12.36,1.319,17.708,1.117
			c6.242-0.236,12.478-0.991,18.577-2.346c5.091-1.132,11.152-2.228,15.156-5.838c4.189-3.776,6.511-9.785,8.904-14.762
			c2.589-5.384,4.918-10.883,7.06-16.458c0.151-0.044,0.303-0.088,0.453-0.134c6.436,5.478,14.445,9.257,22.835,11.898
			c-4.381,5.415-4.025,13.78,0.565,19.146c6.556,7.663,17.749,8.011,26.533,4.535C397.419,364.773,415.406,342.493,407.282,320.807z
			 M367.59,211.971c-5.283-5.446-11.274-10.189-18.026-13.9c-8.782-4.827-18.448-7.415-28.331-8.354
			c1.431-0.54,2.856-1.17,4.29-1.943c4.868-2.622,9.287-6.233,13.171-10.145c8.717-8.781,14.47-19.85,19.131-31.194
			c2.657-6.469,4.943-13.079,7.28-19.668c1.586-4.469,4.725-18.546,12.004-14.452c5.604,3.151,7.118,11.225,6.286,17.035
			c-0.981,6.855-4.885,13.054-8.642,18.711c-0.89,1.34-0.056,3.605,1.587,3.9c14.583,2.622,16.41,22.74,2.257,27.664
			c-1.881,0.654-2.35,2.707-1.109,4.201c8.366,10.065,3.118,24.738-9.32,27.914C367.949,211.796,367.762,211.878,367.59,211.971z
			 M111.61,206.199c-1.757-1.137-4.527-1.437-6.196-2.617c-3.839-2.714-6.665-6.902-8.285-11.265
			c-3.467-9.335-2.447-20.203,2.481-28.827c1.039-1.818,2.221-3.502,3.507-5.092c-2.023,5.193-2.845,10.999-2.603,16.005
			c0.22,4.54,1.294,9.108,3.433,13.136c1.984,3.736,6.668,7.57,8.289,11.86C111.932,201.643,111.728,203.916,111.61,206.199z
			 M165.474,268.096c2.687,2.175,5.609,3.998,8.505,5.356c3.829,1.796,7.94,2.953,12.134,3.481
			c0.325,15.445-10.21,26.725-23.583,31.646c-1.899-6.835-2.663-13.861-2.078-20.959
			C161.036,280.55,163.353,274.601,165.474,268.096z M117.612,299.208c-6.764-9.175-6.115-19.96-1.512-29.799
			c1.795,0.725,3.756,1.243,5.854,1.517c3.803,0.495,8.049,0.513,12.3-0.035c-0.062,1.539,0.559,3.164,0.685,4.909
			c0.275,3.818-0.011,7.713-1.034,11.412c-1.87,6.759-6.14,12.54-11.756,16.677C120.471,302.549,118.938,301.006,117.612,299.208z
			 M125.803,306.346c5.674-4.4,9.903-10.255,11.967-17.234c1.227-4.15,1.59-8.475,1.068-12.77c-0.228-1.869-0.374-4.288-1.34-5.986
			c7.922-1.585,15.462-5.253,19.732-11.623c1.492,2.56,3.425,4.926,5.617,7.042c-4,5.97-5.781,14.136-6.508,21.102
			c-0.81,7.752-0.049,15.511,2.083,22.985c-4.079,1.066-8.33,1.572-12.553,1.443C138.996,311.095,131.788,309.734,125.803,306.346z
			 M313.436,357.912c-2.386,4.555-4.519,7.884-9.683,9.55c-1.715,0.553-3.481,0.992-5.262,1.376
			c-0.068-1.583,0.039-3.137,0.453-4.744c0.5-1.939,1.314-3.712,1.572-5.709c0.174-1.349-1.696-1.509-2.316-0.627
			c-1.495,2.124-3.088,3.881-3.916,6.398c-0.603,1.834-0.805,3.719-0.684,5.609c-0.567,0.095-1.136,0.194-1.7,0.285
			c-4.955,0.801-9.96,1.268-14.974,1.384c-0.013-0.042-0.025-0.076-0.037-0.119c-0.437-1.481-0.409-2.824-0.149-4.38
			c0.465-2.782,2.025-5.032,2.858-7.668c0.337-1.066-0.894-1.852-1.795-1.38c-4.17,2.188-6.506,8.656-5.597,13.552
			c-1.958-0.044-3.915-0.139-5.869-0.299c-2.462-0.202-5.047-0.073-5.952-2.859c-0.678-2.085-0.119-4.741,0.863-6.638
			c2.064-3.987,6.909-5.781,11.151-5.908c0.888-0.027,1.358-1.324,0.479-1.767c-1.011-0.509-2.037-0.858-3.059-1.069
			c0.689-1.583,1.001-3.391,1.416-5.035c0.28-1.111,0.769-2.488,0.907-3.802c7.401,0.165,14.834-0.134,22.191-0.863
			c8.068-0.8,16.096-2.105,24.003-3.897c1.311-0.297,2.648-0.595,3.991-0.908C319.692,345.045,316.758,351.57,313.436,357.912z"/>
		<path d="M312.86,289.693c-2.898,0.172-4.999,3.203-6.203,5.579c-1.553,3.064-1.949,6.037-1.463,9.411
			c0.298,2.064,3.821,2.04,4.144,0c0.402-2.533,1.029-5.151,2.005-7.527c0.853-2.076,2.557-3.967,2.739-6.241
			C314.132,290.283,313.481,289.656,312.86,289.693z"/>
		<path d="M316.434,299.884c-5.375,4.434-7.899,10.747-7.169,17.706c0.365,3.479,5.826,3.565,5.519,0
			c-0.474-5.511,1.103-11.132,4.33-15.638C320.323,300.265,317.818,298.742,316.434,299.884z"/>
		<path d="M266.232,238.57c-0.345-1.95-3.322-1.782-3.778,0c-1.267,4.95,1.447,9.473,4.911,12.8c2.066,1.984,5.696-0.588,4.07-3.14
			C269.465,245.14,266.888,242.274,266.232,238.57z"/>
		<path d="M277.445,241.59c-1.045-1.513-1.623-4.089-3.842-4.12c-0.703-0.01-1.479,0.528-1.63,1.241
			c-1.101,5.221,3.023,10.908,8.282,11.444c2.117,0.216,3.266-2.85,1.743-4.208C280.41,244.53,278.673,243.369,277.445,241.59z"/>
		<path d="M295.295,243.329c-1.88-0.899-3.692-2.047-5.478-3.12c-1.736-1.044-3.221-2.408-4.954-3.438
			c-0.644-0.383-1.494,0.107-1.49,0.855c0.032,5.576,5.846,9.297,10.944,9.315C296.143,246.947,297.083,244.184,295.295,243.329z"/>
		<path d="M306.632,240.227c-1.388-0.725-2.743-1.664-4.001-2.597c-1.214-0.901-2.213-2.117-3.644-2.659
			c-0.768-0.291-1.854,0.327-1.997,1.134c-0.368,2.074,0.919,4.069,2.274,5.552c1.486,1.628,3.369,2.542,5.501,2.998
			C307.328,245.203,309.185,241.562,306.632,240.227z"/>
		<path d="M334.041,236.142c1.091,1.128,2.182,2.256,3.274,3.384c2.08,2.15,5.457-1.237,3.277-3.277
			c-1.673-1.566-3.289-3.276-5.073-4.712c-1.478-1.19-3.233-1.579-4.755-0.286c-0.761,0.647-0.418,2.253,0.632,2.394
			C332.272,233.764,333.441,235.522,334.041,236.142z"/>
		<path d="M346.741,238.519c1.456,2.693,5.598,0.285,4.111-2.403c-1.609-2.909-4.106-6.73-7.596-7.502
			c-1.409-0.312-2.26,1.041-1.737,2.259c0.606,1.41,1.761,2.635,2.711,3.826C345.184,235.894,346.013,237.173,346.741,238.519z"/>
		<path d="M161.767,179.701c-1.335,2.87-1.947,5.821-1.826,9c0.099,2.593,0.351,5.875,1.993,7.942
			c0.369,0.464,1.278,0.331,1.522-0.196c0.955-2.062,0.57-4.469,0.64-6.709c0.091-2.916,0.387-5.719,1.328-8.495
			C166.143,179.124,162.73,177.633,161.767,179.701z"/>
		<path d="M169.256,195.038c0.192,0.335,0.605,0.529,1.023,0.286c1.605-0.936,2.114-3.217,2.994-4.77
			c1.111-1.962,2.353-3.824,3.421-5.812c0.863-1.608-1.202-3.276-2.548-1.966c-1.822,1.774-2.984,3.754-3.928,6.107
			c-0.725,1.806-1.94,4.284-0.986,6.165C169.24,195.045,169.248,195.041,169.256,195.038z"/>
		<path d="M158.151,192.882c-1.098-2.646-2.923-5.112-5.122-6.962c-1.856-1.562-4.552,1.107-2.681,2.681
			c2.046,1.722,3.741,3.588,5.409,5.674C156.626,195.364,158.691,194.184,158.151,192.882z"/>
		<path d="M266.838,187.647c-0.856-0.694-1.756-1.31-2.726-1.833c-1.278-0.689-2.773,1.041-1.608,2.084
			c0.663,0.594,1.293,1.233,1.839,1.938c0.269,0.348,0.511,0.715,0.779,1.063c0.341,0.443,0.685,0.707,1.12,1.051
			c0.545,0.431,1.225,0.614,1.864,0.24c0.569-0.332,0.915-1.093,0.707-1.737C268.422,189.251,267.817,188.441,266.838,187.647z"/>
		<path d="M271.43,184.689c0.629-0.173,1.251-0.721,1.383-1.383c0.162-0.809,0.173-1.521-0.309-2.237
			c-0.311-0.462-0.711-0.956-1.19-1.252c-1.05-0.648-2.692-0.674-3.188,0.649c-0.138,0.369-0.048,0.775,0.059,1.14
			c0.012,0.04,0.02,0.069,0.027,0.091c0.045,0.352,0.102,0.534,0.292,0.929c0.021,0.039,0.043,0.079,0.064,0.118
			c0.006,0.013,0.009,0.018,0.014,0.029c0.009,0.027,0.018,0.055,0.027,0.082c0.204,0.541,0.471,0.943,0.894,1.325
			C270.035,184.66,270.722,184.884,271.43,184.689z"/>
		<path d="M274.786,175.991c0.469-0.274,0.625-0.798,0.533-1.308c-0.27-1.483-1.813-1.936-3.082-1.598
			c-0.733,0.195-0.624,1.142,0,1.381c0.283,0.108,0.302,0.212,0.423,0.417c0.207,0.352,0.474,0.611,0.723,0.927
			C273.694,176.207,274.381,176.228,274.786,175.991z"/>
		<path d="M131.011,327.648c-0.423-0.961-1.315-1.284-2.311-1.134c-1.351,0.203-2.531,0.75-3.449,1.787
			c-0.883,0.997-1.892,3.456,0.091,4.001c1.036,0.285,1.924-0.342,2.764-0.853c0.712-0.434,1.377-0.946,2.104-1.354
			C131.052,329.621,131.393,328.518,131.011,327.648z"/>
		<path d="M132.258,336.553c1.58-0.252,3.077-1.042,4.475-1.78c1.64-0.865,0.84-3.41-0.925-3.415
			c-2.308-0.008-4.495,1.19-5.341,3.404C130.027,335.912,131.287,336.708,132.258,336.553z"/>
		<path d="M137.594,341.673c1.103-0.402,1.975-1.008,2.725-1.906c1.103-1.323,0.087-3.399-1.722-2.958
			c-1.239,0.303-2.208,0.855-3.122,1.745c-0.769,0.749-1.614,1.986-0.755,2.985C135.424,342.359,136.744,341.982,137.594,341.673z"
			/>
		<path d="M139.431,347.406c1.182,0.182,2.258-0.092,3.41-0.341c0.969-0.209,1.425-1.363,1.065-2.218
			c-0.404-0.959-1.439-1.204-2.331-0.786c-0.941,0.441-1.876,0.818-2.608,1.584C138.471,346.163,138.609,347.28,139.431,347.406z"/>
		<path d="M189.685,349.016c-0.884,1.324-1.09,3.05-0.847,4.603c0.184,1.174,0.945,3.171,2.534,2.292
			c0.83-0.459,1.11-1.512,1.46-2.344c0.385-0.917,0.848-1.795,1.088-2.765C194.566,348.198,191.134,346.846,189.685,349.016z"/>
		<path d="M201.052,349.005c-1.271,1.374-2.155,3.55-2.173,5.438c-0.017,1.795,2.259,2.703,3.516,1.456
			c1.344-1.333,2.263-3.492,2.361-5.36C204.854,348.678,202.302,347.653,201.052,349.005z"/>
		<path d="M211.952,356.513c1.275-0.073,1.829-1.06,2.447-2.027c0.525-0.822,1.125-1.562,1.681-2.421
			c0.65-1.003,0.298-2.436-0.624-3.125c-0.89-0.665-2.4-0.754-3.181,0.189c-0.966,1.168-1.551,2.344-1.885,3.823
			c-0.165,0.731-0.289,1.43-0.074,2.166C210.518,355.804,211.151,356.558,211.952,356.513z"/>
		<path d="M222.674,356.488c0.789,0.462,2.027,0.389,2.648-0.342c0.281-0.33,0.519-0.678,0.76-1.036
			c0.074-0.11,0.152-0.218,0.23-0.326c0.024-0.028,0.062-0.074,0.129-0.157c0.429-0.477,0.866-0.949,1.306-1.416
			c0.894-0.946,1.008-2.59,0-3.516c-1.011-0.928-2.51-0.96-3.516,0c-1.118,1.069-2.275,2.772-2.563,4.324
			C221.491,354.985,221.788,355.97,222.674,356.488z"/>
		<path d="M232.26,357.373c0.898-0.368,1.718-1,2.389-1.7c0.287-0.3,0.585-0.592,0.863-0.9c0.6-0.666,0.762-1.272,0.837-2.144
			c0.059-0.685-0.423-1.395-0.991-1.728c-0.671-0.393-1.345-0.299-2.02,0c-1.065,0.471-1.461,1.451-1.963,2.419
			c-0.429,0.828-0.791,1.796-0.844,2.735C230.484,356.867,231.454,357.704,232.26,357.373z"/>
		<path d="M129.779,244.809c-0.695-0.448-1.878-0.228-2.292,0.521c-0.439,0.793-0.358,1.727,0.389,2.304
			c0.804,0.621,1.999,0.405,2.518-0.481C130.875,246.331,130.559,245.312,129.779,244.809z"/>
		<path d="M121.335,252.88c0.039,0.86,0.697,1.587,1.587,1.587c0.83,0,1.625-0.73,1.587-1.587c-0.038-0.86-0.697-1.587-1.587-1.587
			C122.092,251.293,121.296,252.023,121.335,252.88z"/>
		<path d="M131.611,253.531c1.609,0,1.611-2.5,0-2.5C130.002,251.031,129.999,253.531,131.611,253.531z"/>
		<path d="M185.929,245.09c-0.005-0.1-0.009-0.2-0.014-0.3c-0.06-1.29-1.094-2.534-2.472-2.472
			c-1.391,0.062-2.407,1.086-2.472,2.472c-0.005,0.1-0.009,0.2-0.014,0.3c-0.061,1.301,1.187,2.544,2.486,2.486
			C184.738,247.518,185.994,246.481,185.929,245.09z"/>
		<path d="M179.379,253.115c-0.04,0.008-0.081,0.015-0.121,0.023c-1.683,0.312-2.083,2.605-0.979,3.709
			c1.104,1.104,3.396,0.704,3.709-0.979c0.007-0.04,0.015-0.081,0.023-0.121C182.32,254.074,181.051,252.805,179.379,253.115z"/>
		<path d="M188.536,253.184c3.091,0,3.096-4.803,0-4.803C185.446,248.381,185.441,253.184,188.536,253.184z"/>
		<path d="M155.303,227.165c1.004-0.085,1.919-0.6,2.925-0.772c1.02-0.174,1.989-0.167,2.96-0.58c1.231-0.523,0.857-2.173,0-2.789
			c-1.097-0.789-2.733-0.676-3.969-0.293c-1.148,0.355-2.649,1.051-3.226,2.152C153.503,225.819,154.089,227.268,155.303,227.165z"
			/>
		<path d="M163.122,216.54c-2.217-0.523-4.079,0.168-5.89,1.431c-0.84,0.586-0.339,1.9,0.704,1.668
			c1.673-0.372,3.483-0.315,5.187-0.553C164.442,218.901,164.317,216.822,163.122,216.54z"/>
		<path d="M212.501,290.629c-2.512,2.042-4.257,5.293-5.236,8.319c-0.477,1.476,1.859,2.508,2.541,1.071
			c1.332-2.805,3.043-5.255,4.658-7.876C215.257,290.856,213.542,289.782,212.501,290.629z"/>
		<path d="M219.839,300.526c0.122-1.054,0.556-2.118,1.085-3.029c0.531-0.916,1.557-2.002,1.471-3.108
			c-0.046-0.591-0.376-1.085-0.959-1.259c-1.618-0.484-3.173,1.141-4.041,2.305c-0.99,1.328-1.583,2.879-1.804,4.517
			C215.173,303.039,219.474,303.666,219.839,300.526z"/>
		<path d="M230.343,296.18c-1.64-0.072-3.002,1.686-3.699,2.994c-0.835,1.568-1.381,3.362-0.736,5.083
			c0.593,1.582,2.628,1.581,3.223,0c0.433-1.152,0.517-2.42,1.033-3.545c0.497-1.085,1.396-2.02,1.471-3.24
			c-0.015,0.002-0.03,0.004-0.045,0.006C231.571,296.846,231.132,296.215,230.343,296.18z"/>
		<path d="M240.262,304.496c0.596-1.626,1.046-3.38,0.691-5.111c-0.201-0.982-1.604-1.074-2.075-0.271
			c-0.823,1.4-1.054,3.064-1.298,4.643C237.31,305.511,239.637,306.203,240.262,304.496z"/>
		<path d="M364.813,335.567c-1.126-0.558-2.093-1.436-3.277-1.847c-1.476-0.512-2.338,1.208-1.824,2.372
			c0.569,1.288,2.108,2.305,3.257,3.047c1.294,0.835,2.712,1.317,4.214,1.614c2.466,0.488,3.484-3.031,1.045-3.792
			C367.06,336.597,365.91,336.111,364.813,335.567z"/>
		<path d="M372.675,333.704c1.546,0.626,2.864,1.017,4.449,0.34c0.679-0.29,0.893-1.363,0.509-1.941
			c-0.889-1.335-2.194-1.718-3.667-2.181c-1.324-0.416-2.897-1.162-4.276-0.804c-0.934,0.243-1.319,1.332-0.873,2.146
			C369.534,332.572,371.347,333.167,372.675,333.704z"/>
		<path d="M381.882,326.97c1.353,0.842,2.82,1.107,4.268,0.365c0.821-0.421,1.052-1.792,0.31-2.404
			c-1.742-1.437-4.048-1.156-5.959-2.214c-0.826-0.457-1.948,0.501-1.364,1.364C379.925,325.247,380.67,326.216,381.882,326.97z"/>
		<path d="M390.611,322.516c0.343,1.558,2.748,1.521,3.115,0c0.364-1.512,0.304-2.886-0.489-4.26
			c-0.672-1.165-1.841-2.024-3.023-2.622c-0.907-0.459-2.306,0.572-1.556,1.556c0.598,0.785,0.86,1.584,1.141,2.515
			C390.078,320.632,390.403,321.572,390.611,322.516z"/>
		<path d="M262.324,322.441c-0.91,0.58-0.504,1.889,0.532,1.963c6.834,0.488,14.299-1.863,21.102-2.563
			c7.134-0.734,14.294-0.588,21.431-1.124c1.771-0.133,2.469-3.005,0.452-3.338c-7.475-1.233-15.232-0.805-22.736,0.006
			C276.406,318.108,268.1,318.764,262.324,322.441z"/>
		<path d="M361.849,191.998c-1.897-0.806-3.749-0.903-5.735-1.371c-1.929-0.455-3.521-1.481-5.302-2.279
			c-0.75-0.336-1.686,0.219-1.444,1.11c1.24,4.575,8.15,6.1,12.139,5.158C362.616,194.354,363.007,192.49,361.849,191.998z"/>
		<path d="M362.24,181.383c-1.126-0.096-2.24-0.16-3.37-0.183c-1.091-0.022-2.139-0.149-3.117,0.41
			c-0.65,0.371-0.913,1.489-0.259,2.007c0.959,0.759,1.961,0.803,3.143,0.962c1.202,0.162,2.393,0.287,3.602,0.371
			C364.54,185.11,364.506,181.577,362.24,181.383z"/>
		<path d="M365.989,168.624c-0.994,0.362-1.831,0.951-2.789,1.379c-0.859,0.384-1.801,0.504-2.671,0.842
			c-0.999,0.387-1.359,1.786-0.312,2.387c2.426,1.393,6.339,0.368,7.818-1.947C368.849,170.012,367.481,168.08,365.989,168.624z"/>
		<path d="M368.76,147.956c-0.927,1.107-2.335,1.913-3.612,2.566c-1.089,0.557-0.755,2.197,0.329,2.516
			c2.58,0.759,4.887-0.634,6.217-2.818C372.77,148.451,370.147,146.299,368.76,147.956z"/>
		<path d="M375.543,132.839c-0.474-0.474-1.435-0.701-2.008-0.259c-0.815,0.628-1.487,1.259-2.126,2.066
			c-0.475,0.6-1.251,1.47-1.28,2.289c-0.199,0.708,0.284,1.317,1.01,1.318c0.88,0.196,1.937-0.459,2.61-0.941
			c0.896-0.641,1.611-1.458,2.053-2.465C376.104,134.162,376.106,133.402,375.543,132.839z"/>
	</g>
</g>
</svg>
