<?xml version="1.0" encoding="utf-8"?>
<!-- Generator: Adobe Illustrator 27.5.0, SVG Export Plug-In . SVG Version: 6.00 Build 0)  -->
<svg version="1.1" id="Capa_2" xmlns="http://www.w3.org/2000/svg" xmlns:xlink="http://www.w3.org/1999/xlink" x="0px" y="0px"
	 viewBox="0 0 2122 2122" style="enable-background:new 0 0 2122 2122;" xml:space="preserve">
<path style="fill:#F3D892;" d="M1314.981,912.242c-62.454-194.975-165.028-375.543-316.015-515.271
	c-38.845-35.948-83.008-67.103-130.593-90.391c-48.309-23.642-100.148-39.175-153.534-43.383
	c-8.748-0.69-15.577,7.482-13.335,15.965c0,0,13.408,31.803,18.729,59.172c3.515,18.079-4.508,36.467-19.663,46.932l-88.759,61.284
	c0.642,4.783,1.167,9.584,1.456,14.414c1.828,30.449-3.333,61.25-14.581,89.581c-10.841,27.302-27.383,52.591-48.97,72.61
	c-21.004,19.478-46.761,33.922-74.881,39.939c-21.201,4.536-42.909,4.076-63.93-0.269c4.435,24.549,7.375,49.246,8.42,79.545
	c0.034,0.986,0.065,1.972,0.097,2.958c0.147,4.689,0.261,9.372,0.344,14.049c1.504,84.589-7.021,167.197-7.051,249.6
	c-0.001,4.16,0.02,8.32,0.064,12.479c0.628,59.147,6.119,118.236,23.324,177.924c0.784,2.719,1.59,5.44,2.423,8.162
	c0.535,1.75,1.081,3.499,1.632,5.248c41.507,131.914,124.173,259.052,238.594,339.688c2.72,1.917,5.459,3.805,8.215,5.669
	c18.926,12.8,38.689,24.336,59.254,34.422c76.692,37.613,176.156,55.551,265.906,41.598c-6.168-11.713-14.122-22.373-23.672-31.444
	c-10.105-9.598-21.941-17.705-33.386-25.544c-13.386-9.172-27.23-18.653-38.911-30.814c-24.322-25.318-40.246-58.811-44.84-94.314
	c-5.513-42.58,6.195-85.81,16.526-123.948c0.721-2.66,3.469-4.227,6.12-3.513c2.66,0.721,4.231,3.461,3.513,6.119
	c-10.088,37.243-21.52,79.452-16.263,120.061c4.322,33.401,19.289,64.894,42.141,88.682c10.972,11.422,24.382,20.609,37.354,29.496
	c11.769,8.061,23.936,16.394,34.616,26.541c11.127,10.568,20.248,23.118,27.106,36.93c28.138-5.195,55.18-13.626,80.096-25.684
	c33.899-16.405,64.451-37.33,91.534-61.784c-6.258-19.165-11.31-38.725-15.067-58.546c-9.536-50.298-10.894-102.038-4.124-152.777
	c6.709-50.284,21.348-99.423,43.224-145.193c22.075-46.184,51.546-88.773,87.034-125.668c11.665-12.127,24.122-23.598,37.019-34.404
	C1336.221,989.04,1327.154,950.249,1314.981,912.242z"/>
<path style="fill:#E2BA60;" d="M474.832,663.094c28.12-6.017,53.878-20.462,74.881-39.939c21.588-20.019,38.129-45.307,48.97-72.61
	c11.249-28.331,16.409-59.132,14.581-89.581c-0.29-4.829-0.815-9.631-1.456-14.414l0,0l-54.792,37.831
	c-1.208,0.834-2.45,1.607-3.719,2.319c-2.539,1.423-5.192,2.599-7.925,3.523c-0.683,0.23-1.371,0.446-2.063,0.645
	c-1.039,0.299-2.088,0.562-3.144,0.789c-0.352,0.076-0.706,0.147-1.06,0.215c-2.124,0.406-4.278,0.667-6.447,0.781
	c-0.362,0.019-0.723,0.034-1.086,0.045c-0.363,0.011-0.726,0.017-1.089,0.02c-0.363,0.003-0.726,0.001-1.09-0.005
	c-0.727-0.011-1.455-0.038-2.183-0.083c-1.093-0.066-2.186-0.17-3.278-0.311c-2.626-0.339-5.484-0.771-8.562-1.317
	c-0.88-0.156-1.776-0.322-2.691-0.497c-0.914-0.176-1.846-0.361-2.795-0.557c-0.949-0.196-1.915-0.402-2.898-0.62
	c-2.949-0.653-6.048-1.404-9.287-2.271c-3.239-0.867-6.62-1.847-10.131-2.957c-2.341-0.74-4.74-1.537-7.195-2.396
	c-1.841-0.644-3.713-1.323-5.615-2.039c-2.78-1.046-6.138-2.366-9.928-3.862c-0.583-0.23-1.177-0.465-1.78-0.703
	c-1.206-0.477-2.451-0.968-3.731-1.472c-0.64-0.252-1.288-0.507-1.945-0.765c-0.328-0.129-0.659-0.258-0.991-0.389
	c-0.665-0.261-1.337-0.523-2.017-0.789c-0.679-0.265-1.366-0.532-2.06-0.802c-1.041-0.404-2.097-0.812-3.166-1.223
	c-0.712-0.274-1.431-0.549-2.156-0.826c-0.724-0.276-1.454-0.553-2.188-0.831c-0.735-0.278-1.474-0.556-2.218-0.835
	c-0.372-0.139-0.745-0.279-1.119-0.418c-2.619-0.976-5.287-1.952-7.984-2.914c-0.385-0.137-0.771-0.274-1.157-0.411
	c-0.773-0.273-1.548-0.545-2.323-0.816c-0.776-0.27-1.553-0.539-2.331-0.806c-0.389-0.133-0.779-0.266-1.168-0.398
	c-2.337-0.793-4.68-1.566-7.015-2.308c-1.557-0.495-3.109-0.976-4.654-1.442c-1.158-0.349-2.312-0.689-3.46-1.018
	c-0.383-0.11-0.764-0.219-1.145-0.326c-1.143-0.322-2.28-0.635-3.408-0.934c-1.128-0.3-2.247-0.588-3.355-0.863
	c-0.739-0.183-1.473-0.36-2.202-0.531c-0.729-0.171-1.453-0.336-2.171-0.494c-11.848-2.612-22.135-3.437-28.469-0.868
	c-0.768,0.312-1.477,0.673-2.125,1.087c-2.913,1.863-4.564,4.794-4.564,9.053l23.02,93.288
	c9.918,43.291,18.19,74.907,23.946,106.771c0.001,0,0.003,0,0.004,0C431.923,667.169,453.631,667.63,474.832,663.094z"/>
<path style="fill:#E2BA60;" d="M1281.324,1434.623c0.487-0.87,0.974-1.741,1.456-2.614c0.068-0.123,0.135-0.246,0.203-0.369
	c1.353-2.46,2.685-4.932,3.996-7.418c0.058-0.111,0.116-0.221,0.174-0.331c0.612-1.162,1.218-2.326,1.82-3.494
	c0.051-0.099,0.102-0.197,0.153-0.295c0.649-1.26,1.292-2.522,1.929-3.788l0.064-0.128c0.589-1.171,1.172-2.344,1.752-3.521
	c0.096-0.196,0.193-0.391,0.289-0.587c1.207-2.457,2.393-4.925,3.558-7.404c0.091-0.194,0.182-0.387,0.272-0.58
	c0.576-1.23,1.149-2.462,1.716-3.698c0.001-0.002,0.003-0.005,0.004-0.008c0.58-1.265,1.153-2.532,1.722-3.803
	c0.083-0.185,0.165-0.369,0.247-0.554c0.509-1.14,1.014-2.281,1.514-3.425c0.057-0.13,0.114-0.258,0.171-0.388
	c0.55-1.261,1.095-2.523,1.635-3.789c0.069-0.163,0.138-0.327,0.208-0.49c0.474-1.115,0.944-2.232,1.41-3.35
	c0.086-0.208,0.173-0.415,0.259-0.623c0.523-1.261,1.042-2.524,1.555-3.789c0.037-0.092,0.074-0.184,0.111-0.276
	c0.469-1.156,0.931-2.315,1.391-3.476c0.104-0.263,0.208-0.527,0.312-0.79c0.98-2.489,1.941-4.987,2.882-7.493
	c0.111-0.295,0.22-0.59,0.331-0.885c0.41-1.098,0.816-2.197,1.218-3.297c0.059-0.163,0.12-0.326,0.18-0.49
	c0.453-1.246,0.901-2.495,1.346-3.744c0.098-0.275,0.194-0.551,0.291-0.826c0.376-1.064,0.748-2.128,1.116-3.194
	c0.081-0.233,0.162-0.465,0.242-0.699c0.437-1.27,0.87-2.542,1.297-3.817c0.062-0.184,0.122-0.367,0.184-0.55
	c0.366-1.098,0.729-2.197,1.088-3.298c0.096-0.296,0.194-0.592,0.289-0.887c0.411-1.267,0.818-2.535,1.219-3.805
	c0.025-0.079,0.049-0.159,0.074-0.238c0.374-1.187,0.743-2.375,1.108-3.565c0.1-0.325,0.199-0.65,0.298-0.975
	c0.355-1.164,0.707-2.33,1.054-3.497c0.033-0.109,0.065-0.217,0.098-0.326c0.372-1.255,0.738-2.512,1.101-3.771
	c0.1-0.349,0.2-0.698,0.3-1.047c0.3-1.05,0.597-2.1,0.891-3.152c0.065-0.232,0.13-0.463,0.195-0.694
	c0.355-1.279,0.705-2.559,1.05-3.841c0.072-0.267,0.143-0.535,0.215-0.802c0.279-1.045,0.556-2.091,0.829-3.138
	c1.176-4.508,2.294-9.033,3.349-13.575c0.073-0.315,0.144-0.631,0.217-0.947c0.221-0.957,0.441-1.914,0.658-2.871
	c0.082-0.365,0.165-0.73,0.247-1.096c0.231-1.027,0.46-2.054,0.687-3.083c0.062-0.283,0.126-0.567,0.188-0.85
	c0.281-1.282,0.559-2.564,0.833-3.847c0.048-0.225,0.095-0.45,0.143-0.675c0.247-1.165,0.493-2.329,0.735-3.494
	c0.04-0.193,0.08-0.386,0.12-0.58c0.571-2.761,1.126-5.524,1.665-8.289c0.012-0.06,0.024-0.12,0.035-0.18
	c16.189-83.244,17.558-167.552,5.128-249.759c-12.921,10.824-25.333,22.255-37.019,34.404
	c-35.488,36.894-64.959,79.483-87.034,125.668c-21.876,45.769-36.514,94.909-43.224,145.193
	c-6.77,50.739-5.412,102.479,4.124,152.777c3.758,19.823,8.81,39.385,15.069,58.553c16.254-14.675,31.256-30.623,44.978-47.63
	c0.008-0.01,0.016-0.019,0.023-0.029c0.492-0.611,0.979-1.225,1.468-1.838c0.937-10.939,1.431-21.762,1.475-32.478
	c0.154-37.332-5.121-74.682-15.678-111.013c-0.767-2.645,0.753-5.413,3.401-6.182c2.631-0.765,5.413,0.753,6.182,3.401
	c10.821,37.25,16.229,75.549,16.073,113.834c-0.025,5.998-0.189,12.027-0.486,18.089c2.001-2.733,3.974-5.487,5.913-8.267
	c0.008-0.012,0.017-0.023,0.025-0.035c1.644-2.358,3.266-4.733,4.865-7.123c0.045-0.067,0.09-0.134,0.135-0.202
	c1.587-2.375,3.152-4.765,4.695-7.171c0.03-0.047,0.06-0.094,0.091-0.142c2.33-3.637,4.609-7.309,6.838-11.015
	c0.026-0.043,0.052-0.086,0.077-0.129c0.44-0.731,0.873-1.466,1.308-2.2C1277.444,1441.451,1279.406,1438.05,1281.324,1434.623z"/>
<path style="fill:#15162B;" d="M613.846,1630.146c-68.397,72.772-132.597,99.741-190.784,80.178
	c-1.212-0.408-2.418-0.879-3.613-1.404c6.073-9.562,18.421-15.116,29.559-12.893c2.704,0.541,5.333-1.21,5.874-3.91
	c0.541-2.702-1.208-5.332-3.91-5.873c-15.473-3.109-32.029,4.416-40.211,17.745c-4.269-2.995-8.125-6.606-11.199-10.476
	c0.695-0.484,1.276-1.151,1.661-1.973c5.647-12.056,20.302-19.391,33.32-16.726c2.714,0.56,5.337-1.186,5.89-3.883
	c0.555-2.7-1.184-5.338-3.883-5.891c-16.447-3.387-34.109,4.696-42.629,19.002c-0.447-1.121-0.811-2.239-1.086-3.348
	c-1.491-6.012-0.225-11.184,3.766-15.376c4.198-4.414,10.634-6.38,17.445-8.463l3.484-1.082
	c34.818-11.13,62.66-38.529,76.387-75.167c15.113-40.331,11.43-85.391-9.846-120.536c-7.63-12.599-17.172-23.847-26.4-34.721
	c-10.171-11.99-20.689-24.387-28.263-38.297c-15.776-28.967-21.912-63.294-17.283-96.656c3.791-27.32,15.086-53.353,28.03-77.608
	c-0.55-1.748-1.096-3.497-1.632-5.248c-0.833-2.722-1.639-5.443-2.423-8.162c-15.281,27.457-29.39,57.434-33.862,89.646
	c-4.918,35.462,1.617,71.968,18.405,102.797c8.066,14.812,18.921,27.608,29.42,39.983c8.974,10.577,18.253,21.515,25.471,33.434
	c19.708,32.553,23.089,74.37,9.04,111.866c-12.65,33.759-38.195,58.967-70.085,69.162l-3.362,1.045
	c-7.384,2.255-15.752,4.816-21.757,11.125c-6.399,6.728-8.553,15.255-6.221,24.655c3.751,15.135,19.542,30.907,36.731,36.687
	c13.369,4.494,26.986,6.738,40.843,6.738c50.638-0.002,104.406-29.973,160.392-89.537c24.992-26.591,46.91-52.817,65.848-78.836
	c-2.756-1.863-5.495-3.752-8.215-5.669C660.092,1578.088,638.49,1603.926,613.846,1630.146z"/>
<path style="fill:#15162B;" d="M245.856,777.487c-16.687-38.662-35.603-82.485-26.787-126.721c0.671-3.368,1.7-6.891,3.025-10.443
	c4.879,14.333,13.136,27.504,24.013,38.063c0.969,0.943,2.224,1.411,3.476,1.411c1.301,0,2.602-0.507,3.579-1.513
	c1.919-1.978,1.873-5.137-0.102-7.055c-12.372-12.011-20.958-27.79-24.371-44.682c4.133-7.01,9.219-13.43,14.763-18.156
	c2.804,18.07,11.608,35.181,24.814,47.858c0.967,0.931,2.212,1.391,3.454,1.391c1.311,0,2.619-0.514,3.598-1.535
	c1.91-1.988,1.844-5.145-0.144-7.052c-12.722-12.215-20.807-29.101-22.412-46.657c1.211-0.527,2.431-0.96,3.654-1.284
	c4.324-1.157,11.866-0.392,18.185,3.971c4.263,2.94,9.576,8.677,10.687,19.318c0.11,1.048,0.548,2.035,1.252,2.819
	c4.198,4.666,61.982,68.579,133.223,132.157c-0.083-4.677-0.197-9.359-0.344-14.049c-64.226-58.059-116.407-114.837-124.411-123.626
	c-1.883-13.369-8.987-20.862-14.738-24.833c-7.886-5.44-18.249-7.564-26.407-5.403c-13.736,3.633-25.143,15.656-33.092,28.903
	c-1.544,0.892-2.525,2.572-2.494,4.404c-4.504,8.432-7.595,17.037-8.992,24.045c-9.425,47.284,10.999,94.604,27.411,132.626
	c30.991,71.804,87.885,176.108,176.08,240.012c-0.044-4.159-0.065-8.319-0.064-12.479
	C329.71,946.108,275.637,846.486,245.856,777.487z"/>
<path style="fill:#E2BA60;" d="M713.891,682.303c0-33.337-27.026-60.362-60.362-60.362c-30.834,0-56.265,23.12-59.911,52.969
	l83.725-29.81c0.195-0.076,0.394-0.138,0.596-0.189c0.023-0.006,0.047-0.012,0.069-0.017c0.037-0.009,0.075-0.017,0.113-0.025
	c0.054-0.012,0.109-0.023,0.163-0.033c0.006-0.001,0.012-0.002,0.018-0.003c0.967-0.173,1.939-0.048,2.806,0.32
	c0.018,0.007,0.036,0.016,0.054,0.024c0.053,0.023,0.106,0.047,0.158,0.072c0.034,0.016,0.067,0.033,0.1,0.05
	c0.037,0.019,0.074,0.037,0.111,0.057c0.039,0.021,0.078,0.043,0.117,0.066c0.031,0.018,0.062,0.035,0.092,0.053
	c0.036,0.022,0.071,0.045,0.107,0.068c0.035,0.022,0.07,0.045,0.105,0.068c0.026,0.018,0.053,0.037,0.079,0.055
	c0.043,0.03,0.086,0.061,0.129,0.093c0.017,0.013,0.034,0.026,0.052,0.04c0.05,0.038,0.099,0.077,0.148,0.118
	c0.013,0.011,0.026,0.023,0.039,0.034c0.052,0.044,0.103,0.089,0.153,0.136c0.01,0.009,0.019,0.018,0.028,0.027
	c0.052,0.049,0.103,0.099,0.153,0.151c0.004,0.004,0.009,0.008,0.013,0.013c0.005,0.005,0.01,0.011,0.015,0.016
	c0.048,0.051,0.096,0.102,0.143,0.155c0.01,0.012,0.021,0.024,0.031,0.036c0.042,0.049,0.084,0.099,0.125,0.15
	c0.014,0.018,0.028,0.035,0.041,0.053c0.033,0.043,0.066,0.086,0.098,0.131c0.021,0.029,0.041,0.057,0.061,0.086
	c0.023,0.032,0.044,0.064,0.065,0.096c0.029,0.043,0.056,0.086,0.083,0.13c0.013,0.021,0.025,0.042,0.038,0.063
	c0.032,0.053,0.063,0.107,0.092,0.161c0.008,0.014,0.016,0.028,0.023,0.042c0.035,0.065,0.068,0.132,0.1,0.198
	c0.001,0.003,0.003,0.006,0.004,0.009c0.109,0.229,0.199,0.464,0.271,0.704c0.001,0.005,0.003,0.009,0.004,0.013
	c0.02,0.069,0.039,0.139,0.057,0.208c0.004,0.017,0.009,0.034,0.013,0.051c0.013,0.056,0.025,0.113,0.037,0.169
	c0.006,0.029,0.012,0.058,0.018,0.088c0.008,0.04,0.014,0.08,0.021,0.12c0.007,0.046,0.014,0.092,0.021,0.139
	c0.003,0.02,0.005,0.039,0.007,0.059c0.008,0.064,0.015,0.129,0.02,0.194c0,0.001,0,0.003,0,0.005
	c0.032,0.4,0.015,0.798-0.048,1.186c-0.003,0.015-0.006,0.031-0.008,0.046c-0.01,0.059-0.021,0.119-0.033,0.178
	c-0.01,0.05-0.022,0.1-0.034,0.15c-0.006,0.026-0.012,0.053-0.019,0.08c-0.153,0.598-0.421,1.171-0.798,1.689
	c-0.009,0.011-0.017,0.023-0.026,0.035c-0.032,0.043-0.065,0.085-0.098,0.127c-0.021,0.026-0.042,0.053-0.063,0.079
	c-0.025,0.031-0.052,0.061-0.078,0.091c-0.031,0.036-0.062,0.071-0.094,0.106c-0.019,0.021-0.039,0.042-0.059,0.063
	c-0.041,0.043-0.082,0.086-0.125,0.127c-0.007,0.006-0.013,0.013-0.02,0.02l-72.899,70.507c11,11.594,26.554,18.826,43.797,18.826
	C686.865,742.666,713.891,715.641,713.891,682.303z"/>
<path style="fill:#E2BA60;" d="M593.258,685.627c0.609,11.223,4.282,21.63,10.2,30.399l55.682-53.856L593.258,685.627z"/>
<path style="fill:#E2BA60;" d="M872.652,517.231c-6.209-5.421-13.538-9.592-21.596-12.119l-29.948,41.79L872.652,517.231z"/>
<path style="fill:#E2BA60;" d="M805.843,567.191c-0.025,0.012-0.05,0.023-0.075,0.035c-0.067,0.031-0.134,0.062-0.202,0.091
	c-0.041,0.017-0.083,0.033-0.125,0.049c-0.053,0.021-0.107,0.041-0.161,0.06c-0.047,0.016-0.096,0.032-0.144,0.047
	c-0.045,0.014-0.091,0.028-0.138,0.041c-0.056,0.016-0.114,0.032-0.171,0.046c-0.037,0.009-0.074,0.018-0.112,0.026
	c-0.063,0.014-0.127,0.027-0.19,0.039c-0.031,0.006-0.063,0.01-0.094,0.015c-0.068,0.011-0.137,0.022-0.205,0.03
	c-0.031,0.004-0.06,0.006-0.09,0.008c-0.068,0.007-0.137,0.014-0.206,0.018c-0.057,0.004-0.114,0.005-0.172,0.005
	c-0.039,0.001-0.078,0.004-0.117,0.004h-0.01c-0.017,0-0.035-0.002-0.053-0.003c-0.095-0.001-0.191-0.003-0.285-0.01
	c-0.063-0.004-0.125-0.012-0.188-0.018c-0.047-0.006-0.095-0.01-0.142-0.016c-0.075-0.01-0.15-0.023-0.224-0.036
	c-0.035-0.006-0.071-0.013-0.107-0.021c-0.079-0.016-0.158-0.034-0.237-0.054c-0.028-0.007-0.055-0.015-0.082-0.022
	c-0.084-0.023-0.167-0.047-0.25-0.074c-0.012-0.004-0.023-0.009-0.035-0.013c-0.171-0.058-0.338-0.126-0.504-0.204
	c-0.022-0.01-0.045-0.019-0.068-0.03c-0.055-0.027-0.109-0.056-0.164-0.086c-0.056-0.029-0.113-0.059-0.167-0.092
	c-0.043-0.025-0.085-0.051-0.127-0.077c-0.071-0.045-0.142-0.092-0.212-0.14c-0.018-0.013-0.037-0.023-0.055-0.036
	c-0.016-0.012-0.031-0.024-0.047-0.036c-0.036-0.026-0.07-0.052-0.106-0.079c-0.043-0.034-0.087-0.069-0.129-0.104
	c-0.033-0.027-0.067-0.055-0.1-0.084c-0.071-0.062-0.141-0.126-0.207-0.192c-0.011-0.01-0.022-0.022-0.033-0.033
	c-0.061-0.061-0.119-0.122-0.177-0.186c-0.018-0.02-0.036-0.041-0.054-0.062c-0.058-0.066-0.113-0.133-0.167-0.201
	c-0.009-0.011-0.018-0.022-0.026-0.033c-0.133-0.173-0.254-0.353-0.362-0.54c-0.003-0.006-0.007-0.011-0.01-0.017
	c-0.004-0.006-0.007-0.013-0.01-0.019c-0.033-0.058-0.064-0.117-0.095-0.176c-0.01-0.018-0.019-0.037-0.029-0.055
	c-0.025-0.05-0.048-0.1-0.072-0.15c-0.013-0.029-0.027-0.06-0.04-0.09c-0.016-0.038-0.032-0.075-0.047-0.113
	c-0.017-0.041-0.034-0.082-0.049-0.124c-0.011-0.03-0.021-0.061-0.032-0.091c-0.017-0.048-0.034-0.097-0.05-0.146
	c-0.007-0.019-0.012-0.039-0.018-0.059c-0.018-0.06-0.037-0.122-0.053-0.183c-0.002-0.007-0.003-0.013-0.005-0.02
	c-0.08-0.305-0.13-0.613-0.151-0.922c-0.002-0.021-0.002-0.043-0.003-0.064c-0.003-0.056-0.006-0.113-0.007-0.169
	c-0.002-0.055-0.001-0.109-0.001-0.163c0-0.022,0-0.044,0.001-0.066c0.015-0.697,0.179-1.396,0.494-2.049
	c0.006-0.013,0.012-0.026,0.018-0.039c0.023-0.046,0.047-0.092,0.071-0.137c0.018-0.033,0.035-0.067,0.054-0.1
	c0.016-0.029,0.034-0.058,0.051-0.087c0.028-0.046,0.055-0.092,0.084-0.138c0.013-0.019,0.025-0.039,0.038-0.058
	c0.036-0.056,0.073-0.111,0.112-0.165c0.003-0.005,0.006-0.009,0.01-0.014l40.846-56.998c-2.443-0.301-4.93-0.458-7.454-0.458
	c-33.337,0-60.362,27.025-60.362,60.362s27.025,60.362,60.362,60.362c33.337,0,60.362-27.025,60.362-60.362
	c0-14.442-5.075-27.698-13.535-38.087l-73.645,42.394C806.053,567.084,805.949,567.139,805.843,567.191z"/>
<path style="fill:#15162B;" d="M1878.078,1074.261c-25.52-50.811-68.302-89.462-117.373-106.041
	c-44.992-15.204-98.427-12.419-146.607,7.627c-42.772,17.798-82.909,49.203-116.065,90.823
	c-21.432,26.901-40.641,60.107-60.977,95.262c-31.7,54.804-64.167,110.934-105.35,141.151c0,0,0,0-0.001,0
	c-0.073,0.316-0.144,0.632-0.217,0.947c-1.055,4.542-2.173,9.067-3.349,13.575l0,0c47.482-29.536,82.964-90.874,117.556-150.677
	c20.144-34.826,39.172-67.72,60.144-94.041c32.109-40.304,70.872-70.675,112.095-87.827c45.975-19.13,96.85-21.818,139.576-7.389
	c46.606,15.747,87.303,52.585,111.654,101.067c11.308,22.517,20.424,50.697,25.662,79.35
	c12.628,69.052,22.453,164.872-37.737,199.613c-21.873,12.626-47.915,13.547-71.444,2.538
	c-23.681-11.084-40.419-32.66-44.767-57.715c-3.481-20.049,2.407-39.956,8.644-61.033c6.224-21.045,12.66-42.804,9.033-64.957
	c-6.312-38.534-45.26-69.622-88.67-70.775c-36.492-1.047-75.162,17.094-105.746,49.577c-26.529,28.177-44.566,63.049-62.212,99.301
	l-2.843,5.844c-15.664,32.244-31.861,65.586-54.763,93.301c-39.753,48.104-100.76,77.639-162.989,80.842c-0.002,0-0.003,0-0.004,0
	c-1.919,3.427-3.88,6.828-5.883,10.203h0.005c67.155-1.601,133.701-32.818,176.563-84.687
	c23.661-28.638,40.124-62.526,56.046-95.298l2.836-5.839c17.299-35.53,34.94-69.672,60.507-96.826
	c28.636-30.414,64.333-47.322,98.219-46.443c38.785,1.03,73.522,28.445,79.087,62.414c3.26,19.9-2.577,39.627-8.755,60.514
	c-6.285,21.25-12.787,43.22-8.906,65.569c4.909,28.265,23.737,52.582,50.37,65.047c26.524,12.412,55.92,11.342,80.663-2.933
	c73.242-42.275,50.955-164.163,42.565-210.049C1899.235,1126.733,1889.8,1097.598,1878.078,1074.261z"/>
<path style="fill:#15162B;" d="M947.512,1128.212c96.835-134.691,132.382-257.904,115.252-399.507
	c-0.331-2.733-2.794-4.658-5.552-4.353c-2.736,0.331-4.684,2.816-4.353,5.552c16.806,138.93-18.182,259.978-113.45,392.482
	c-43.403,60.37-87.581,95.97-131.305,105.814c-5.369,1.211-11.473,1.748-17.739,1.614c13.968-8.915,25.599-21.45,33.349-36.118
	c1.286-2.436,0.356-5.457-2.08-6.743c-2.443-1.287-5.456-0.353-6.743,2.08c-8.477,16.051-22.141,29.252-38.475,37.172
	c-0.863,0.419-1.55,1.055-2.029,1.809c-8.832-1.843-16.983-5.083-22.735-9.725c19.007-7.237,35.191-21.599,44.594-39.646
	c1.274-2.443,0.324-5.456-2.119-6.728c-2.434-1.272-5.451-0.324-6.728,2.119c-8.531,16.37-23.401,29.303-40.792,35.481
	c-0.494,0.176-0.942,0.421-1.339,0.721c-1.582-3.792-2.459-8.92-1.462-14.226c0.955-5.089,4.042-12.276,13.313-17.613
	c1.152-0.665,1.993-1.761,2.333-3.045c13.352-50.39,32.658-99.442,51.328-146.882c26.711-67.866,54.329-138.044,66.884-216.467
	c0.436-2.721-1.415-5.279-4.136-5.715c-2.753-0.456-5.279,1.417-5.715,4.136c-12.385,77.354-39.803,147.02-66.317,214.392
	c-18.536,47.096-37.693,95.776-51.172,146.034c-11.159,7.123-15.05,16.526-16.326,23.318c-1.769,9.413,0.502,19.745,5.786,26.322
	c11.364,14.141,33.678,19.265,52.37,19.265c6.748,0,13.026-0.668,18.144-1.82C856.474,1227.537,902.639,1190.621,947.512,1128.212z"
	/>
<path style="fill:#15162B;" d="M1251.981,1463.02c0.156-38.285-5.252-76.585-16.073-113.834c-0.77-2.648-3.552-4.165-6.182-3.401
	c-2.648,0.77-4.168,3.537-3.401,6.182c10.558,36.332,15.832,73.681,15.678,111.013c-0.044,10.715-0.538,21.538-1.475,32.478
	c-0.001,0.004-0.001,0.007-0.001,0.01c-6.056,70.643-30.808,146.208-75.197,229.88c-46.806,88.224-101.635,131.186-162.913,127.617
	c-1.275-0.074-2.562-0.21-3.852-0.402c3.34-10.826,13.781-19.446,25.116-20.227c2.748-0.19,4.823-2.57,4.633-5.32
	c-0.187-2.745-2.567-4.792-5.32-4.633c-15.736,1.083-29.731,12.701-34.112,27.713c-4.906-1.764-9.577-4.231-13.563-7.153
	c0.542-0.65,0.927-1.445,1.081-2.339c2.266-13.118,14.451-24.063,27.737-24.918c2.747-0.178,4.833-2.55,4.658-5.301
	c-0.178-2.748-2.514-4.843-5.301-4.658c-16.747,1.078-31.664,13.522-36.113,29.569c-0.726-0.964-1.373-1.947-1.931-2.945
	c-3.021-5.408-3.162-10.731-0.419-15.827c2.887-5.362,8.572-8.955,14.592-12.758l3.082-1.966
	c30.655-19.912,50.294-53.681,53.881-92.643c2.474-26.866-2.657-53.579-14.158-76.743c-6.858-13.812-15.979-26.362-27.106-36.93
	c-10.68-10.146-22.848-18.48-34.616-26.541c-12.972-8.887-26.383-18.073-37.354-29.496c-22.853-23.788-37.82-55.281-42.141-88.682
	c-5.257-40.609,6.175-82.818,16.263-120.061c0.719-2.658-0.853-5.398-3.513-6.119c-2.651-0.714-5.399,0.853-6.12,3.513
	c-10.331,38.139-22.039,81.369-16.526,123.948c4.594,35.503,20.519,68.996,44.84,94.314c11.681,12.161,25.525,21.642,38.911,30.814
	c11.445,7.839,23.281,15.946,33.386,25.544c9.551,9.072,17.504,19.731,23.672,31.444c11.65,22.124,16.926,48.011,14.528,74.08
	c-3.306,35.9-21.306,66.95-49.384,85.191l-2.974,1.895c-6.524,4.124-13.919,8.797-18.046,16.463
	c-4.402,8.178-4.231,16.97,0.495,25.425c7.608,13.61,26.996,24.663,45.101,25.71c2.56,0.146,5.103,0.222,7.642,0.222
	c62.407-0.002,117.774-44.746,164.66-133.125c48.213-90.881,73.607-172.526,77.35-248.907c0-0.004,0-0.006,0-0.01
	C1251.792,1475.047,1251.956,1469.018,1251.981,1463.02z"/>
<path style="fill:#15162B;" d="M720.23,609.285l10.819,51.702c0.492,2.353,2.567,3.968,4.879,3.968l1.026-0.104
	c2.699-0.565,4.426-3.208,3.864-5.905l-9.636-46.053l38.701,25.266c0.843,0.548,1.788,0.811,2.724,0.811
	c1.629,0,3.225-0.797,4.182-2.261c1.506-2.309,0.858-5.401-1.449-6.906l-44.108-28.796c0.327-0.974,0.646-1.951,0.95-2.932
	c1.315-4.247,2.421-8.675,1.901-13.046c-0.52-4.371-2.967-8.709-7.058-10.385c-0.556-0.228-1.127-0.402-1.709-0.528
	c-2.94-0.64-6.15-0.068-9.086,0.881c-5.2,1.681-10.04,4.51-14.059,8.218c-2.737,2.525-5.159,5.578-6.052,9.149
	C693.094,604.475,709.495,608.845,720.23,609.285z"/>
<path style="fill:#15162B;" d="M647.376,572.712c6.566-4.373,6.362-16.219-0.457-26.458c-6.82-10.239-17.671-14.994-24.237-10.621
	c-6.567,4.373-6.362,16.219,0.457,26.458C629.957,572.331,640.809,577.086,647.376,572.712z"/>
<path style="fill:#15162B;" d="M736.29,513.495c6.566-4.373,6.362-16.219-0.458-26.458c-6.819-10.239-17.671-14.994-24.237-10.621
	c-6.567,4.374-6.362,16.219,0.457,26.458C718.871,513.113,729.723,517.868,736.29,513.495z"/>
<path style="fill:#15162B;" d="M1273.872,1009.404c0.304,2.533,2.456,4.394,4.945,4.394l0.602-0.036
	c2.735-0.329,4.687-2.811,4.358-5.547c-16.497-137.301-67.729-269.337-148.156-381.831c-1.602-2.241-4.721-2.765-6.96-1.157
	c-2.241,1.603-2.76,4.719-1.157,6.96C1206.958,743.321,1257.572,873.762,1273.872,1009.404z"/>
<path style="fill:#15162B;" d="M738.279,297.945c52.609,1.14,101.254,28.302,145.985,57.486c0.841,0.551,1.786,0.811,2.721,0.811
	c1.63,0,3.228-0.796,4.183-2.263c1.506-2.307,0.855-5.398-1.452-6.904c-45.971-29.993-96.11-57.912-151.222-59.108
	c-2.86,0.022-5.035,2.124-5.096,4.882C733.339,295.602,735.524,297.884,738.279,297.945z"/>
<path style="fill:#15162B;" d="M396.501,482.922c4.665,1.299,9.32,2.585,13.966,3.871c40.039,11.074,77.856,21.535,116.036,36.371
	c2.57,0.998,5.46-0.275,6.458-2.843c0.999-2.57-0.275-5.459-2.843-6.458c-38.651-15.018-76.704-25.544-116.992-36.687
	c-8.025-2.219-16.078-4.448-24.163-6.721c-1.866-0.521-3.868,0.078-5.133,1.552c-1.264,1.469-1.562,3.54-0.763,5.306
	c12.855,28.458,24.811,57.769,35.537,87.118c0.74,2.022,2.653,3.279,4.687,3.279c0.57,0,1.147-0.1,1.713-0.305
	c2.587-0.948,3.919-3.812,2.974-6.399C418.385,534.756,407.814,508.537,396.501,482.922z"/>
<path style="fill:#15162B;" d="M799.58,559.811c-0.004,0.004-0.007,0.009-0.01,0.014c-0.038,0.054-0.076,0.109-0.112,0.165
	c-0.013,0.019-0.025,0.038-0.038,0.058c-0.029,0.046-0.056,0.092-0.084,0.138c-0.017,0.029-0.034,0.058-0.051,0.087
	c-0.018,0.033-0.036,0.066-0.054,0.1c-0.024,0.045-0.048,0.091-0.071,0.137c-0.006,0.013-0.012,0.026-0.018,0.039
	c-0.316,0.653-0.479,1.351-0.494,2.049c-0.001,0.022-0.001,0.044-0.001,0.066c0,0.054-0.001,0.108,0.001,0.163
	c0.001,0.056,0.004,0.113,0.007,0.169c0.001,0.021,0.002,0.042,0.003,0.064c0.021,0.308,0.071,0.617,0.151,0.922
	c0.002,0.007,0.003,0.013,0.005,0.02c0.016,0.061,0.034,0.122,0.053,0.183c0.006,0.019,0.011,0.039,0.018,0.059
	c0.016,0.048,0.033,0.097,0.05,0.146c0.011,0.03,0.021,0.061,0.032,0.091c0.015,0.041,0.032,0.082,0.049,0.124
	c0.015,0.038,0.031,0.075,0.047,0.113c0.014,0.03,0.027,0.06,0.04,0.09c0.023,0.05,0.047,0.1,0.072,0.15
	c0.01,0.018,0.019,0.037,0.029,0.055c0.03,0.059,0.062,0.118,0.095,0.176c0.003,0.006,0.007,0.013,0.01,0.019
	c0.003,0.006,0.007,0.011,0.01,0.017c0.108,0.186,0.229,0.367,0.362,0.54c0.008,0.011,0.018,0.022,0.026,0.033
	c0.054,0.068,0.109,0.135,0.167,0.201c0.018,0.02,0.036,0.041,0.054,0.062c0.057,0.063,0.116,0.125,0.177,0.186
	c0.011,0.01,0.021,0.023,0.033,0.033c0.067,0.066,0.137,0.13,0.207,0.192c0.033,0.029,0.066,0.056,0.1,0.084
	c0.043,0.036,0.086,0.07,0.129,0.104c0.035,0.027,0.07,0.053,0.106,0.079c0.015,0.011,0.03,0.024,0.047,0.036
	c0.018,0.013,0.037,0.023,0.055,0.036c0.07,0.048,0.14,0.095,0.212,0.14c0.042,0.026,0.085,0.052,0.127,0.077
	c0.055,0.032,0.112,0.062,0.167,0.092c0.055,0.029,0.109,0.059,0.164,0.086c0.022,0.011,0.045,0.02,0.068,0.03
	c0.166,0.078,0.333,0.146,0.504,0.204c0.012,0.004,0.023,0.008,0.035,0.013c0.083,0.027,0.166,0.051,0.25,0.074
	c0.027,0.008,0.054,0.016,0.082,0.022c0.078,0.021,0.157,0.039,0.237,0.054c0.036,0.008,0.071,0.014,0.107,0.021
	c0.075,0.013,0.15,0.026,0.224,0.036c0.047,0.007,0.094,0.01,0.142,0.016c0.063,0.006,0.125,0.014,0.188,0.018
	c0.095,0.007,0.19,0.01,0.285,0.01c0.018,0,0.036,0.003,0.053,0.003h0.01c0.039,0,0.078-0.003,0.117-0.004
	c0.057-0.001,0.114-0.002,0.172-0.005c0.069-0.004,0.137-0.011,0.206-0.018c0.03-0.003,0.06-0.005,0.09-0.008
	c0.068-0.008,0.137-0.019,0.205-0.03c0.031-0.005,0.063-0.009,0.094-0.015c0.063-0.011,0.127-0.025,0.19-0.039
	c0.037-0.008,0.074-0.017,0.112-0.026c0.057-0.014,0.115-0.029,0.171-0.046c0.046-0.013,0.092-0.026,0.138-0.041
	c0.048-0.015,0.097-0.031,0.144-0.047c0.054-0.019,0.108-0.039,0.161-0.06c0.042-0.016,0.084-0.032,0.125-0.049
	c0.068-0.029,0.135-0.059,0.202-0.091c0.025-0.012,0.05-0.023,0.075-0.035c0.105-0.052,0.21-0.108,0.312-0.167L879.8,524.63
	l72.518-41.745c2.388-1.374,3.208-4.424,1.834-6.814c-1.371-2.385-4.424-3.208-6.814-1.835l-74.687,42.993l-51.544,29.671
	l29.948-41.79l52.187-72.823c1.605-2.239,1.089-5.357-1.15-6.962c-2.241-1.61-5.359-1.092-6.962,1.15l-54.705,76.337L799.58,559.811
	z"/>
<path style="fill:#15162B;" d="M682.65,653.313c0.043-0.041,0.084-0.084,0.125-0.127c0.02-0.021,0.04-0.043,0.059-0.063
	c0.032-0.035,0.063-0.07,0.094-0.106c0.026-0.03,0.052-0.06,0.078-0.091c0.021-0.026,0.042-0.053,0.063-0.079
	c0.033-0.042,0.066-0.084,0.098-0.127c0.008-0.012,0.016-0.023,0.026-0.035c0.378-0.517,0.645-1.091,0.798-1.689
	c0.007-0.027,0.012-0.053,0.019-0.08c0.012-0.05,0.024-0.1,0.034-0.15c0.013-0.059,0.023-0.118,0.033-0.178
	c0.003-0.016,0.005-0.031,0.008-0.046c0.063-0.388,0.08-0.786,0.048-1.186c0-0.002,0-0.004,0-0.005
	c-0.005-0.065-0.012-0.13-0.02-0.194c-0.003-0.02-0.005-0.039-0.007-0.059c-0.006-0.046-0.013-0.092-0.021-0.139
	c-0.007-0.04-0.013-0.08-0.021-0.12c-0.005-0.029-0.011-0.058-0.018-0.088c-0.011-0.056-0.023-0.113-0.037-0.169
	c-0.004-0.017-0.009-0.034-0.013-0.051c-0.017-0.069-0.036-0.139-0.057-0.208c-0.001-0.004-0.003-0.008-0.004-0.013
	c-0.072-0.24-0.162-0.475-0.271-0.704c-0.001-0.003-0.002-0.006-0.004-0.009c-0.032-0.066-0.065-0.133-0.1-0.198
	c-0.007-0.014-0.015-0.029-0.023-0.042c-0.029-0.054-0.06-0.108-0.092-0.161c-0.013-0.021-0.025-0.042-0.038-0.063
	c-0.027-0.044-0.054-0.087-0.083-0.13c-0.021-0.032-0.042-0.064-0.065-0.096c-0.02-0.029-0.04-0.058-0.061-0.086
	c-0.032-0.044-0.064-0.088-0.098-0.131c-0.014-0.017-0.028-0.035-0.041-0.053c-0.041-0.051-0.082-0.101-0.125-0.15
	c-0.01-0.012-0.021-0.024-0.031-0.036c-0.046-0.053-0.094-0.104-0.143-0.155c-0.005-0.005-0.01-0.011-0.015-0.016
	c-0.004-0.004-0.009-0.008-0.013-0.013c-0.05-0.051-0.101-0.102-0.153-0.151c-0.009-0.009-0.018-0.018-0.028-0.027
	c-0.05-0.046-0.101-0.091-0.153-0.136c-0.013-0.012-0.026-0.023-0.039-0.034c-0.048-0.04-0.098-0.079-0.148-0.118
	c-0.017-0.013-0.034-0.027-0.052-0.04c-0.042-0.032-0.085-0.063-0.129-0.093c-0.027-0.018-0.053-0.037-0.079-0.055
	c-0.035-0.023-0.07-0.046-0.105-0.068c-0.035-0.023-0.071-0.046-0.107-0.068c-0.03-0.018-0.061-0.035-0.092-0.053
	c-0.039-0.022-0.077-0.044-0.117-0.066c-0.036-0.02-0.074-0.038-0.111-0.057c-0.033-0.017-0.066-0.034-0.1-0.05
	c-0.052-0.025-0.105-0.048-0.158-0.072c-0.018-0.008-0.036-0.017-0.054-0.024c-0.867-0.369-1.839-0.493-2.806-0.32
	c-0.006,0.001-0.012,0.002-0.018,0.003c-0.054,0.01-0.109,0.021-0.163,0.033c-0.038,0.008-0.075,0.016-0.113,0.025
	c-0.023,0.005-0.046,0.011-0.069,0.017c-0.201,0.051-0.4,0.113-0.596,0.189l-83.725,29.81l-70.666,25.159
	c-2.594,0.923-3.951,3.776-3.025,6.373c0.726,2.042,2.648,3.318,4.699,3.318c0.555,0,1.121-0.095,1.673-0.292l66.959-23.84
	l65.882-23.456l-55.682,53.856l-49.015,47.407c-1.98,1.915-2.031,5.074-0.117,7.055c0.979,1.011,2.283,1.52,3.586,1.52
	c1.249,0,2.499-0.466,3.469-1.403l48.351-46.765l72.899-70.507C682.637,653.326,682.643,653.32,682.65,653.313z"/>
<path style="fill:#15162B;" d="M808.004,732.439c-6.429,4.97-14.256,6.626-19.93,4.214c-2.54-1.069-5.464,0.112-6.541,2.648
	c-1.074,2.536,0.11,5.464,2.648,6.541c2.928,1.24,6.156,1.844,9.496,1.844c6.869,0,14.219-2.551,20.429-7.355
	c8.716-6.738,13.123-16.153,11.791-25.181c-0.402-2.728-2.963-4.597-5.664-4.207c-2.726,0.402-4.609,2.938-4.207,5.664
	C816.825,722.02,813.826,727.938,808.004,732.439z"/>
</svg>
